HIERARCHY
ROOT root     
{
	OFFSET 0.0000 0.0000 0.0000
	CHANNELS 6 Xposition Yposition Zposition Zrotation Yrotation Xrotation
	JOINT pelvis   
	{
		OFFSET 0.0000 0.0000 0.0000
		CHANNELS 3 Zrotation Yrotation Xrotation
		JOINT thorax   
		{
			OFFSET 0.0000 23.0750 -5.0000
			CHANNELS 3 Zrotation Yrotation Xrotation
			JOINT rclavicle
			{
				OFFSET 0.0000 28.0009 0.0000
				CHANNELS 3 Zrotation Yrotation Xrotation
				JOINT rhumerus 
				{
					OFFSET -18.5725 5.5939 0.0000
					CHANNELS 3 Zrotation Yrotation Xrotation
					JOINT rradius  
					{
						OFFSET -24.8459 0.0000 0.0000
						CHANNELS 3 Zrotation Yrotation Xrotation
						JOINT rhand    
						{
							OFFSET -24.5477 0.0000 0.0000
							CHANNELS 3 Zrotation Yrotation Xrotation
							End Site
							{
								OFFSET -8.1826 0.0000 0.0000
							}
						}
					}
				}
			}
			JOINT lclavicle
			{
				OFFSET 0.0000 28.0009 0.0000
				CHANNELS 3 Zrotation Yrotation Xrotation
				JOINT lhumerus 
				{
					OFFSET 18.5725 5.5939 0.0000
					CHANNELS 3 Zrotation Yrotation Xrotation
					JOINT lradius  
					{
						OFFSET 24.8459 0.0000 0.0000
						CHANNELS 3 Zrotation Yrotation Xrotation
						JOINT lhand    
						{
							OFFSET 24.5477 0.0000 0.0000
							CHANNELS 3 Zrotation Yrotation Xrotation
							End Site
							{
								OFFSET 8.1826 0.0000 0.0000
							}
						}
					}
				}
			}
			JOINT head     
			{
				OFFSET 0.0000 35.2030 0.0000
				CHANNELS 3 Zrotation Yrotation Xrotation
				End Site
				{
					OFFSET 0.0000 11.7343 0.0000
				}
			}
		}
		JOINT rfemur   
		{
			OFFSET -8.2817 0.0000 0.0000
			CHANNELS 3 Zrotation Yrotation Xrotation
			JOINT rtibia   
			{
				OFFSET 0.0000 -43.3627 0.0000
				CHANNELS 3 Zrotation Yrotation Xrotation
				JOINT rfoot    
				{
					OFFSET 0.0000 -38.2947 0.0000
					CHANNELS 3 Zrotation Yrotation Xrotation
					JOINT rtoes    
					{
						OFFSET 0.0000 0.0000 16.6054
						CHANNELS 3 Zrotation Yrotation Xrotation
						End Site
						{
							OFFSET 0.0000 0.0000 5.5351
						}
					}
				}
			}
		}
		JOINT lfemur   
		{
			OFFSET 8.2817 0.0000 0.0000
			CHANNELS 3 Zrotation Yrotation Xrotation
			JOINT ltibia   
			{
				OFFSET 0.0000 -43.3627 0.0000
				CHANNELS 3 Zrotation Yrotation Xrotation
				JOINT lfoot    
				{
					OFFSET 0.0000 -38.2947 0.0000
					CHANNELS 3 Zrotation Yrotation Xrotation
					JOINT ltoes    
					{
						OFFSET 0.0000 0.0000 16.6054
						CHANNELS 3 Zrotation Yrotation Xrotation
						End Site
						{
							OFFSET 0.0000 0.0000 5.5351
						}
					}
				}
			}
		}
	}
}
MOTION
Frames: 21
Frame Time: .0333333
-3.3486 83.907 1.0009 -83.1125 85.2103 -64.9306 0 -0 0 10.0352 -11.9245 -10.4248 27.6845 -15.0101 -1.97701e-05 52.8027 -11.1607 4.67494 -9.09924e-07 77.956 -1.12455e-06 2.22396 3.50924 0.0681031 -22.2268 15.8983 0.000196304 -38.1434 7.264 24.4565 180 -59.1411 180 -0.252294 -0.866205 0.0019 2.78074 11.5354 1.53337 7.06854 -7.77009 -37.0781 -0 -0 22.7701 -1.66847e-05 2.83942 12.0118 0.591398 4.35287e-06 -47.2799 -0.753902 5.0233 4.88041 -0 -0 23.754 8.60661e-06 -2.4422 14.6303 -0.617205 1.86773e-06 -67.2806 
-1.9829 83.599 1.0402 -83.7745 85.0121 -65.8006 0 -0 0 10.4541 -11.4925 -10.3281 28.062 -14.6115 -7.30537e-05 52.5789 -10.8341 3.92458 -1.46167e-06 76.7686 -1.15781e-06 0.769707 3.26278 0.0219002 -22.6314 16.0545 0.000103891 -38.2319 7.45991 23.4796 180 -59.1375 180 -0.972896 -1.07679 0.00909991 1.39539 11.6806 1.19351 6.89524 -7.32941 -37.5207 -0 -0 26.2291 4.82883e-06 2.23893 9.77197 0.380199 -6.19138e-07 -44.881 -0.273196 5.10702 4.81215 -0 -0 25.78 6.39486e-06 -3.20286 15.2005 -0.8406 2.66013e-06 -66.3753 
-0.6328 83.332 1.0842 -86.3792 84.7903 -68.6729 0 -0 0 10.8991 -11.1851 -10.1054 28.469 -14.1729 -0.000201684 52.3597 -10.3766 3.25854 -0 75.4716 -0 -0.857094 3.01495 -0.0226 -22.981 16.1519 -5.81827e-05 -38.5574 7.64606 22.5245 180 -59.4158 180 -1.60367 -1.20942 0.0168998 0.0360992 11.8492 0.798611 6.82554 -7.0667 -37.6387 -0 -0 29.2572 1.42923e-06 1.71415 7.74411 0.231001 1.35671e-06 -43.3262 0.349597 5.17087 4.63721 -0 -0 28.0211 -7.35971e-06 -4.01669 15.8347 -1.0977 -2.90146e-07 -64.7035 
0.6963 83.115 1.1356 -90.8598 84.521 -73.4583 0 -0 0 11.3855 -11.0076 -9.79575 28.8798 -13.7164 -1.90192e-05 52.1607 -9.79984 2.6908 -9.38701e-07 74.0953 -1.2435e-06 -2.57166 2.79503 -0.0627023 -23.2823 16.1901 -0.000124657 -39.0916 7.79863 21.6372 180 -59.9799 180 -2.07537 -1.24074 0.0225002 -1.29306 12.0316 0.364511 6.88107 -6.9901 -37.4276 -0 -0 31.713 3.83301e-07 1.2229 5.98929 0.127599 7.36274e-07 -42.7299 1.12869 5.2044 4.32595 -0 -0 30.4502 -4.0095e-06 -4.8077 16.4982 -1.36828 2.86593e-06 -62.35 
2 82.953 1.1913 -96.9297 84.1799 -79.8437 0 -0 0 11.8958 -10.9573 -9.44402 29.2758 -13.2625 0.000165092 52.0031 -9.13469 2.22704 -0 72.6786 -0 -4.27922 2.62713 -0.0982014 -23.5276 16.1749 -0.000173536 -39.792 7.89664 20.8598 -180 -60.8271 180 -2.32159 -1.15475 0.023399 -2.58326 12.218 -0.0874985 7.05348 -7.11402 -36.9217 -0 -0 33.5575 1.9923e-07 0.736703 4.50808 0.0579006 5.27992e-07 -43.0174 2.03632 5.17974 3.85609 -0 -0 33.0235 -1.0808e-05 -5.47098 17.1574 -1.61837 2.60868e-06 -59.4869 
3.2779 82.844 1.2438 -104.079 83.7366 -87.3061 0 -0 0 12.3878 -11.0197 -9.0827 29.6403 -12.838 -5.34861e-05 51.9061 -8.40747 1.87513 -1.07995e-06 71.2613 -7.74021e-07 -5.88735 2.53072 -0.130199 -23.7098 16.1095 7.11368e-05 -40.6118 7.92506 20.2271 180 -61.9422 -180 -2.28544 -0.946202 0.0189002 -3.82318 12.4008 -0.535604 7.30959 -7.448 -36.1718 -0 -0 34.8155 -2.32361e-08 0.237495 3.26495 0.0135004 5.86205e-08 -43.9576 3.01559 5.06623 3.22561 -0 -0 35.6778 -1.22376e-05 -5.89589 17.7785 -1.80599 3.42537e-06 -56.3696 
4.5317 82.784 1.2873 -111.741 83.1759 -95.2669 0 -0 0 12.8267 -11.1736 -8.73614 29.9535 -12.468 7.63017e-05 51.8914 -7.63907 1.64459 -1.01775e-06 69.8896 -7.11186e-07 -7.31305 2.51894 -0.161005 -23.8301 15.9994 -7.86482e-05 -41.4979 7.88011 19.7589 180 -63.3011 180 -1.92774 -0.620198 0.0104003 -5.00797 12.5747 -0.959802 7.61032 -7.97232 -35.2237 -0 -0 35.5411 -1.58825e-08 -0.299496 2.21955 -0.0115999 3.85921e-08 -45.2512 4.01395 4.84816 2.44039 -0 -0 38.3523 -7.62331e-06 -5.99842 18.322 -1.89185 2.09536e-05 -53.2977 
5.7631 82.768 1.3138 -119.381 82.5023 -103.181 0 -0 0 13.1723 -11.388 -8.42649 30.2026 -12.1673 0.00015581 51.9658 -6.8667 1.53564 -0 68.6293 -0 -8.48888 2.59237 -0.192401 -23.8846 15.8533 9.34356e-05 -42.399 7.76207 19.4663 -180 -64.8694 180 -1.23246 -0.192903 0.00209997 -6.13122 12.7373 -1.33987 7.90432 -8.65577 -34.1341 -0 -0 35.819 -2.53647e-07 -0.887303 1.33244 -0.0206002 -5.60926e-08 -46.5984 4.96557 4.51573 1.50992 -0 -0 40.9887 -7.26054e-06 -5.71766 18.7495 -1.84335 -1.54465e-05 -50.5452 
6.9735 82.788 1.317 -126.632 81.7132 -110.674 0 -0 0 13.3917 -11.6276 -8.16666 30.3786 -11.9455 4.18515e-05 52.1357 -6.12155 1.55065 -0 67.5323 -0 -9.37125 2.74343 -0.224908 -23.8845 15.6794 4.37405e-06 -43.2605 7.57999 19.3469 180 -66.607 180 -0.213306 0.311997 -0.000600026 -7.19177 12.8912 -1.66084 8.14658 -9.45001 -32.9548 -0 -0 35.7461 -3.71292e-08 -1.53181 0.576194 -0.0154003 -1.50367e-07 -47.7592 5.81425 4.07612 0.446902 -0 -0 43.5407 5.31452e-06 -5.03499 19.0165 -1.64441 5.98855e-06 -48.2955 
8.163 82.839 1.2924 -133.241 80.8494 -117.483 0 -0 0 13.469 -11.8538 -7.96437 30.4697 -11.8028 -7.56193e-05 52.3988 -5.42826 1.69251 -0 66.6396 -0 -9.94111 2.95493 -0.257003 -23.8406 15.4844 0.00015224 -44.0421 7.35497 19.385 180 -68.4574 180 1.08449 0.866307 0.0081999 -8.1914 13.0378 -1.91261 8.30218 -10.2918 -31.7349 -0 -0 35.4263 -3.11972e-08 -2.23261 -0.0608998 0.0024 -7.82741e-09 -48.6034 6.5202 3.55129 -0.736105 -0 -0 45.9723 -1.68709e-05 -3.97524 19.0781 -1.30124 -2.78634e-05 -46.6084 
9.33 82.916 1.2348 -139.154 79.9428 -123.546 0 -0 0 13.3861 -12.0302 -7.82198 30.4731 -11.7289 -3.10751e-05 52.7408 -4.81403 1.96234 -8.79915e-07 65.9889 -5.71307e-07 -10.207 3.20335 -0.286205 -23.769 15.2872 -0.000148307 -44.7071 7.09576 19.5607 -180 -70.3713 180 2.58725 1.44204 0.0326 -9.13041 13.1842 -2.09141 8.33816 -11.1283 -30.5232 -0 -0 34.9663 -5.88992e-08 -2.9684 -0.584698 0.0303011 2.1589e-08 -49.0987 7.04241 2.96835 -2.02516 -0 -0 48.2542 -4.97642e-06 -2.59433 18.8939 -0.840591 -4.78878e-07 -45.4163 
10.473 83.013 1.1455 -144.334 79.0327 -128.816 0 -0 0 13.1598 -12.1231 -7.73687 30.3793 -11.7135 -4.76673e-05 53.1499 -4.28313 2.36541 -8.68411e-07 65.5914 -5.5957e-07 -10.1971 3.46405 -0.309199 -23.6922 15.082 4.8829e-05 -45.2309 6.84461 19.832 -180 -72.2795 180 4.19505 2.01351 0.0737988 -10.0169 13.3341 -2.20096 8.25189 -11.8917 -29.3537 -0 -0 34.4504 1.13469e-06 -3.72684 -0.983718 0.0641004 3.67037e-08 -49.3112 7.38038 2.36774 -3.40915 -0 -0 50.3716 5.4553e-07 -0.989099 18.4375 -0.312905 4.14409e-06 -44.5705 
11.589 83.13 1.0229 -148.856 78.1663 -133.366 0 -0 0 12.7943 -12.1113 -7.69964 30.1939 -11.7339 -3.7838e-05 53.6007 -3.84429 2.90386 -8.64449e-07 65.4553 -5.55542e-07 -9.95798 3.71187 -0.323495 -23.6256 14.8912 0.000118565 -45.5972 6.60974 20.1695 180 -74.1292 180 5.79933 2.56092 0.129702 -10.8529 13.4926 -2.25168 8.0374 -12.5442 -28.2589 -0 -0 33.959 2.42029e-06 -4.47059 -1.25105 0.0978006 3.52988e-07 -49.3638 7.52383 1.78197 -4.87222 -0 -0 52.3093 -2.02437e-06 0.737599 17.7061 0.2243 9.84617e-07 -43.8843 
12.677 83.266 0.8694 -152.789 77.3643 -137.267 0 -0 0 12.3116 -11.9816 -7.69615 29.9182 -11.7696 -8.20862e-05 54.0648 -3.48994 3.57989 -7.89963e-07 65.5572 -1.22676e-06 -9.54453 3.92735 -0.328006 -23.5894 14.7178 0.000115595 -45.8013 6.41554 20.5333 180 -75.8677 -180 7.28969 3.0699 0.1956 -11.6411 13.6597 -2.25844 7.70804 -13.0605 -27.2548 -0 -0 33.5428 2.06525e-06 -5.16652 -1.37344 0.124198 -5.99543e-08 -49.4058 7.4861 1.2434 -6.3983 -0 -0 54.0626 3.42701e-06 2.476 16.7203 0.712712 2.03515e-06 -43.1861 
13.739 83.421 0.6874 -156.195 76.6573 -140.587 0 -0 0 11.7325 -11.7297 -7.70638 29.5604 -11.7989 -9.45069e-06 54.5164 -3.20574 4.39351 -8.03322e-07 65.8798 -1.23985e-06 -9.0124 4.09734 -0.323097 -23.596 14.5716 4.95743e-05 -45.8454 6.27583 20.8872 180 -77.4545 180 8.56965 3.53062 0.264608 -12.3833 13.8341 -2.24039 7.28167 -13.4353 -26.3426 -0 -0 33.2225 -2.00249e-06 -5.77917 -1.33948 0.135595 -1.35156e-06 -49.5909 7.28585 0.776607 -7.96737 -0 -0 55.6243 1.71142e-05 4.1308 15.5263 1.10751 8.67229e-07 -42.3551 
14.777 83.596 0.4802 -159.152 76.0554 -143.421 0 -0 0 11.0799 -11.3643 -7.70587 29.1327 -11.8027 -4.61858e-05 54.9227 -2.9705 5.34313 -8.91813e-07 66.388 -5.83441e-07 -8.41401 4.21707 -0.310305 -23.6518 14.4658 -4.82028e-05 -45.741 6.18742 21.2036 -180 -78.8486 180 9.56518 3.93653 0.329512 -13.08 14.0126 -2.2184 6.78121 -13.6813 -25.5083 -0 -0 32.9949 5.10508e-07 -6.27872 -1.1403 0.125399 2.24531e-07 -50.0403 6.94841 0.39899 -9.55849 -0 -0 56.9917 -1.18796e-05 5.6302 14.1869 1.38414 5.53993e-06 -41.3437 
15.795 83.792 0.2507 -161.724 75.5606 -145.848 0 -0 0 10.3714 -10.9017 -7.67133 28.6486 -11.7676 5.65806e-05 55.2599 -2.7587 6.41876 -9.12362e-07 67.04 -6.04341e-07 -7.78656 4.28944 -0.292099 -23.7624 14.3872 0.000112381 -45.5077 6.17312 21.4491 -180 -80.0367 180 10.2271 4.2819 0.383302 -13.7291 14.1872 -2.21008 6.22654 -13.8283 -24.7239 -0 -0 32.8307 1.02352e-07 -6.64298 -0.772797 0.0899997 8.74884e-07 -50.8309 6.49665 0.120094 -11.1485 -0 -0 58.1608 -3.34043e-06 6.93266 12.7742 1.53999 -7.37729e-06 -40.1268 
16.799 84.01 0.0031 -163.945 75.1628 -147.924 0 -0 0 9.6301 -10.3606 -7.57933 28.1254 -11.6849 0.000101769 55.5022 -2.54356 7.61494 -9.37985e-07 67.8058 -6.30375e-07 -7.16541 4.32334 -0.270802 -23.9223 14.3631 0.000139477 -45.1666 6.19339 21.6258 180 -81.0264 180 10.5404 4.56438 0.421296 -14.3262 14.3474 -2.23183 5.64391 -13.9038 -23.9583 -0 -0 32.6867 -2.40906e-07 -6.86999 -0.238298 0.0286995 -2.61819e-07 -51.983 5.96147 -0.0547731 -12.7175 -0 -0 59.1333 1.69839e-06 8.0241 11.3592 1.59044 6.38332e-06 -38.7931 
17.795 84.25 -0.2606 -165.888 74.8568 -149.742 0 -0 0 8.86173 -9.76145 -7.41235 27.5782 -11.5528 -1.34726e-05 55.6374 -2.30139 8.91085 -0 68.6505 -0 -6.56335 4.33065 -0.248401 -24.123 14.3756 -8.87684e-05 -44.7449 6.26512 21.7144 -180 -81.8103 180 10.5129 4.78013 0.439994 -14.8686 14.4848 -2.29222 5.04511 -13.9463 -23.1752 -0 -0 32.5158 -2.18069e-07 -6.96236 0.449797 -0.0549001 -6.80674e-09 -53.461 5.35678 -0.129089 -14.2422 -0 -0 59.9024 -5.51903e-07 8.91948 9.99659 1.56065 2.31188e-05 -37.3719 
18.79 84.51 -0.5362 -167.57 74.6162 -151.332 0 -0 0 8.08342 -9.12473 -7.16039 27.0207 -11.3749 -3.77689e-05 55.6508 -2.01077 10.2922 -6.96769e-07 69.5481 -1.00349e-06 -5.99464 4.32563 -0.226604 -24.3504 14.4361 4.92718e-06 -44.2713 6.35028 21.7299 -180 -82.4326 180 10.181 4.92964 0.439397 -15.3541 14.5874 -2.39596 4.45065 -13.9791 -22.3425 -0 -0 32.2698 4.03842e-06 -6.94686 1.27675 -0.155598 2.20515e-06 -55.1861 4.70652 -0.106305 -15.7095 -0 -0 60.4668 4.0918e-06 9.64845 8.72977 1.47804 -7.91839e-06 -35.9669 
19.789 84.789 -0.8219 -169.045 74.4244 -152.758 0 -0 0 7.29728 -8.46541 -6.82151 26.4629 -11.1603 -4.22304e-05 55.5446 -1.65764 11.7358 -0 70.4735 -0 -5.46111 4.32094 -0.206197 -24.5886 14.5396 -0.000100219 -43.7743 6.44023 21.6824 180 -82.9114 -180 9.59853 5.01447 0.421291 -15.7777 14.6493 -2.53943 3.86672 -14.0243 -21.4372 -0 -0 31.9142 -2.18871e-06 -6.84994 2.21982 -0.266603 6.02568e-06 -57.0583 4.01758 0.00320638 -17.1056 -0 -0 60.8186 -5.48489e-07 10.2554 7.57974 1.36711 3.7476e-06 -34.6384 
